<?xml version="1.0" encoding="utf-8"?>
<!-- Generator: Adobe Illustrator 19.1.1, SVG Export Plug-In . SVG Version: 6.00 Build 0)  -->
<svg version="1.1" id="emoji" xmlns="http://www.w3.org/2000/svg" xmlns:xlink="http://www.w3.org/1999/xlink" x="0px" y="0px"
	 viewBox="-269 361 72 72" style="enable-background:new -269 361 72 72;" xml:space="preserve">
<style type="text/css">
	.st0{fill:#03A9F4;}
	.st1{fill:#2196F3;}
	.st2{fill:#9C27B0;}
	.st3{fill:none;stroke:#000000;stroke-width:2;stroke-linecap:round;stroke-linejoin:round;}
</style>
<ellipse class="st0" cx="-233.3" cy="396.9" rx="22.4" ry="22.8"/>
<path class="st1" d="M-216.6,381c6,11.3,1.8,25.3-9.3,31.4c-9.1,4.9-20.3,3.1-27.3-4.5c6,11.3,19.7,15.5,30.8,9.5
	c11.1-6.1,15.2-20.1,9.3-31.4C-214,384.2-215.1,382.5-216.6,381z"/>
<path class="st2" d="M-215.9,382.4c8-1,13.7,0,14.8,3c1.9,5.3-11,15-28.7,21.7s-33.7,7.7-35.7,2.3c-1.1-3.1,2.7-7.7,9.7-12.3
	l0.1,1.7c-2.6,2.4-3.9,4.6-3.2,6.3c1.5,4.1,14,3.3,27.8-1.8c13.9-5.2,23.9-12.8,22.3-16.9c-0.6-1.6-2.8-2.4-6.1-2.7L-215.9,382.4z"
	/>
<path class="st3" d="M-252.9,407.7c-5.8-11.2-1.8-25,9.2-31s24.5-1.8,30.5,9.4c0.3,0.5,0.6,1.2,0.8,1.7"/>
<path class="st3" d="M-210.6,398.2c-0.4,12.1-10.9,21.7-23.3,21.3c-4.8-0.2-9.4-1.8-13.2-4.7"/>
<path class="st3" d="M-215.4,382.4c8.1-1,13.9,0,15,3c2,5.3-11.1,15-29.1,21.7c-18.1,6.6-34.2,7.7-36.2,2.3
	c-1.1-3.1,2.8-7.7,9.8-12.2"/>
<path class="st3" d="M-214.5,383.5c3.3,0.2,5.5,1.1,6.2,2.7c1.6,4.3-8.7,11.9-22.7,17.1c-14.1,5.2-26.6,6.1-28.2,1.9
	c-0.6-1.7,0.6-3.9,3.3-6.4"/>
</svg>
